<svg viewBox="0 0 50.54 47.19" xmlns="http://www.w3.org/2000/svg"><path d="m50.05 36a4.78 4.78 0 0 0 -1.62-.57 13.7 13.7 0 0 1 -6.55-4.83 16.9 16.9 0 0 1 -2.3-3.95 1.9 1.9 0 0 1 .08-1.7h.06a4.87 4.87 0 0 1 2.24-1.48 8.43 8.43 0 0 0 3.04-1.59 1.08 1.08 0 0 0 .47-.58c0-.05.06-.13.08-.22a1.21 1.21 0 0 0 -.08-.82 2.43 2.43 0 0 0 -1-1 2.51 2.51 0 0 0 -1.87-.17 6.92 6.92 0 0 1 -1.61.47s0 .05 0 .05a4.6 4.6 0 0 1 -1.99-.06 1.4 1.4 0 0 0 0-.41c0-1.1.08-2.25.08-3.48a33.18 33.18 0 0 0 -.11-5.54v-.06a12.58 12.58 0 0 0 -5.21-7.7 12.88 12.88 0 0 0 -6.44-2.22 22 22 0 0 0 -2.32-.14 14.3 14.3 0 0 0 -8.66 2.8 13.39 13.39 0 0 0 -4.25 5.51 15.28 15.28 0 0 0 -.66 6.74c0 1.51.19 3 .08 4.44v.08a6.36 6.36 0 0 1 -2.17-.05c-.52-.08-1-.3-1.64-.47h-.12a1.79 1.79 0 0 0 -1.58.39 1.66 1.66 0 0 0 -1 1.4.22.22 0 0 0 0 .16 1.52 1.52 0 0 0 .55.9 2.28 2.28 0 0 0 .57.41v.06a20.41 20.41 0 0 0 3.49 1.43 2.37 2.37 0 0 1 1.54 1.48 3.77 3.77 0 0 1 -.61 2.61 15.67 15.67 0 0 1 -5.21 6 12.81 12.81 0 0 1 -3.81 1.73c-.31.14-1 .19-1.37.82a.23.23 0 0 0 -.09.17 1.14 1.14 0 0 0 .22 1 1.61 1.61 0 0 0 .6.46 12.92 12.92 0 0 0 3.52 1.25 19.44 19.44 0 0 1 2.22.55c0 .05.11.24.25.6.22.63.3 1.4.55 2.17a.64.64 0 0 0 .46.41 1.29 1.29 0 0 0 .85-.05 0 0 0 0 0 0 0 14.39 14.39 0 0 1 5.6-.16c1.86.47 3.42 1.73 5.26 2.82a8.3 8.3 0 0 0 4.17 1.54 26.38 26.38 0 0 0 3.56-.08 6.64 6.64 0 0 0 2.8-.93l.05-.06c1.89-1 3.54-2.36 5.41-3.18a10.49 10.49 0 0 1 2.19-.25 33.31 33.31 0 0 1 4.58.25h.16a.86.86 0 0 0 .52-.27c.11-.14.11-.28.17-.36s.08-.19 0-.08.05-.08.08-.11a6.3 6.3 0 0 1 .85-2.25 1.31 1.31 0 0 1 1-.3h.11a18.52 18.52 0 0 0 3.62-1c0-.05 0-.05 0-.05a3.11 3.11 0 0 0 1.43-1 1 1 0 0 0 -.24-1.53z" fill="#181818" fill-rule="evenodd"/></svg>