<?xml version="1.0" encoding="utf-8"?>
<!-- Generator: Adobe Illustrator 23.0.1, SVG Export Plug-In . SVG Version: 6.00 Build 0)  -->
<svg version="1.1" id="Calque_1" xmlns="http://www.w3.org/2000/svg" xmlns:xlink="http://www.w3.org/1999/xlink" x="0px" y="0px"
	 viewBox="0 0 80 90" style="enable-background:new 0 0 80 90;" xml:space="preserve">
<style type="text/css">
	.st0{fill:none;stroke:#161919;stroke-width:1.72;stroke-linecap:round;stroke-miterlimit:10;}
</style>
<path class="st0" d="M37.2,40.8C30.6,22.8,20.9,8,11.4,16c-8.4,7-6,68.8-6,68.8"/>
<path class="st0" d="M46.2,71.7c-2-8.1-4.3-16.9-7-25"/>
<path class="st0" d="M49.2,84.8c-0.4-1.7-0.8-3.4-1.2-5.3"/>
<path class="st0" d="M49.6,51.1c-9.3-18.6-22-35-32.2-25.3C10,33,6.7,84.8,6.7,84.8"/>
<path class="st0" d="M63.9,84.8c-2.8-7.2-5.9-15.3-9.4-23.1"/>
<path class="st0" d="M68.2,65.7C55.7,42.3,41.5,22.9,28.6,34.9C21,42,7.5,84.8,7.5,84.8"/>
<path class="st0" d="M78.1,84.8c-2.4-4.7-4.7-9.3-7-13.8"/>
</svg>
