<?xml version="1.0" standalone="no"?>
<!DOCTYPE svg PUBLIC "-//W3C//DTD SVG 20010904//EN"
 "http://www.w3.org/TR/2001/REC-SVG-20010904/DTD/svg10.dtd">
<svg version="1.0" xmlns="http://www.w3.org/2000/svg"
 width="720.000000pt" height="720.000000pt" viewBox="0 0 720.000000 720.000000"
 preserveAspectRatio="xMidYMid meet">
<metadata>
Created by potrace 1.11, written by Peter Selinger 2001-2013
</metadata>
<g transform="translate(0.000000,720.000000) scale(0.100000,-0.100000)"
fill="#000000" stroke="none">
<path d="M1678 6165 c-2 -2 -21 -5 -43 -8 -154 -22 -349 -145 -465 -294 -39
-49 -150 -337 -175 -450 -10 -46 -13 -59 -25 -101 -6 -24 -13 -55 -15 -70 -5
-31 -13 -74 -22 -117 -3 -16 -7 -39 -9 -50 -2 -11 -5 -30 -8 -41 -5 -26 -13
-73 -22 -139 -3 -27 -8 -59 -10 -70 -2 -11 -6 -44 -10 -73 -3 -29 -7 -62 -9
-72 -2 -10 -6 -47 -10 -81 -3 -34 -8 -76 -10 -93 -3 -17 -7 -62 -10 -101 -3
-38 -7 -86 -10 -105 -9 -68 -30 -351 -39 -535 -3 -38 -7 -122 -10 -185 -41
-747 -49 -1979 -20 -2900 6 -198 6 -300 2 -321 -4 -18 269 -21 287 -2 8 7 23
43 35 80 61 193 162 500 170 518 4 11 38 108 74 215 36 107 84 247 106 310 22
63 57 162 77 220 19 58 42 117 49 132 8 15 15 31 15 35 1 5 3 13 4 18 5 18
108 299 121 330 12 29 33 85 80 215 13 36 28 74 33 85 5 11 35 85 66 165 61
154 168 415 190 465 8 17 32 71 53 120 22 50 50 115 63 145 93 215 366 729
404 760 8 7 15 17 15 22 0 5 6 15 13 23 6 7 21 26 32 41 20 29 124 135 163
167 42 33 137 95 180 117 48 23 72 21 72 -8 0 -10 4 -22 9 -28 7 -7 103 -226
116 -264 1 -3 5 -14 10 -25 25 -60 70 -179 92 -240 14 -38 32 -78 41 -87 16
-19 67 -24 90 -9 19 12 30 63 19 91 -5 14 -13 34 -17 45 -5 11 -22 58 -40 105
-18 47 -36 94 -41 105 -4 11 -25 61 -45 110 -20 50 -44 108 -54 130 -53 119
-60 139 -53 146 5 4 40 11 79 14 l71 7 42 -53 c23 -30 49 -63 59 -74 85 -102
374 -526 433 -635 13 -25 27 -47 30 -50 6 -6 65 -104 103 -172 67 -123 79
-144 86 -153 4 -5 40 -73 80 -150 40 -77 81 -154 91 -171 10 -17 16 -33 14
-36 -3 -3 1 -11 10 -18 8 -7 15 -18 15 -25 0 -18 32 -43 64 -49 36 -6 78 35
72 70 -4 23 -157 326 -176 349 -5 6 -8 14 -5 17 3 3 -1 11 -10 18 -8 7 -15 16
-15 20 0 23 -344 602 -361 608 -5 2 -9 8 -9 14 0 6 -16 33 -35 59 -19 27 -35
53 -35 58 0 5 -3 11 -8 13 -4 2 -42 53 -85 114 -42 61 -86 120 -97 132 -11 12
-20 24 -20 28 0 4 -10 18 -22 31 -12 13 -19 25 -16 28 13 14 228 -76 341 -143
157 -92 466 -366 617 -548 30 -37 60 -71 65 -78 20 -21 110 -132 135 -166 14
-18 31 -39 38 -46 6 -7 12 -17 12 -22 0 -6 4 -12 9 -14 5 -1 41 -48 79 -103
39 -55 75 -104 80 -110 4 -5 65 -95 134 -200 139 -211 259 -404 367 -590 93
-161 122 -211 240 -425 68 -124 130 -235 138 -248 37 -61 119 -39 128 33 2 13
-113 233 -187 358 -15 26 -28 49 -28 51 0 1 -32 59 -71 127 -39 68 -80 138
-90 156 -10 17 -29 50 -43 72 -15 22 -26 43 -26 46 0 4 -12 25 -27 48 -16 23
-33 51 -40 62 -6 11 -38 62 -70 113 -32 51 -62 102 -68 112 -5 11 -13 20 -17
20 -5 0 -8 7 -8 15 0 8 -4 15 -10 15 -5 0 -10 5 -10 11 0 8 -165 260 -193 294
-4 6 -41 57 -82 114 -41 58 -87 120 -102 140 -65 83 -188 237 -198 247 -5 6
-39 45 -75 85 -94 107 -263 274 -361 356 -85 72 -250 190 -278 201 -9 3 -18 8
-21 12 -3 3 -48 27 -100 52 -130 63 -255 100 -387 114 -25 2 -47 18 -95 70
-179 192 -315 313 -459 406 -32 20 -59 44 -59 52 0 8 -3 16 -7 18 -5 2 -42 55
-84 118 -123 187 -288 381 -417 492 -176 152 -368 237 -549 243 -46 1 -84 1
-85 0z m220 -161 c194 -56 405 -228 602 -490 81 -108 94 -132 63 -119 -10 4
-29 9 -42 11 -14 3 -28 7 -32 10 -26 16 -211 22 -284 10 -22 -4 -49 -8 -60
-10 -11 -2 -20 -4 -20 -5 0 -2 -9 -4 -21 -6 -80 -16 -259 -124 -348 -210 -113
-110 -198 -275 -289 -560 -73 -230 -169 -623 -203 -835 -3 -19 -10 -55 -16
-80 -5 -25 -11 -57 -13 -72 -2 -15 -9 -54 -15 -88 -6 -34 -13 -73 -15 -88 -2
-15 -13 -85 -25 -157 -12 -71 -23 -141 -25 -155 -2 -14 -6 -43 -10 -65 -3 -22
-8 -53 -10 -70 -2 -16 -6 -43 -9 -60 -3 -16 -8 -50 -11 -75 -3 -25 -7 -58 -9
-75 -3 -16 -14 -104 -25 -195 -12 -91 -23 -179 -26 -196 -2 -17 -7 -57 -10
-90 -3 -32 -8 -75 -11 -94 -2 -19 -6 -57 -9 -85 -3 -27 -7 -66 -9 -85 -10 -76
-17 -137 -21 -180 -7 -72 -16 -163 -20 -190 -2 -14 -7 -61 -10 -105 -4 -44 -8
-91 -10 -105 -7 -67 -16 -161 -21 -220 -3 -36 -7 -81 -9 -100 -2 -19 -6 -79
-10 -132 -4 -54 -8 -106 -10 -115 -2 -10 -4 -35 -4 -55 -1 -21 -4 -38 -8 -38
-5 0 -9 114 -10 253 -2 138 -4 290 -5 337 -1 47 1 91 6 98 4 6 3 12 -1 12 -14
0 -5 1151 12 1605 14 371 21 532 30 650 2 39 7 111 10 160 3 50 8 113 10 140
3 28 7 79 10 115 17 197 25 288 30 320 2 14 6 52 10 85 3 33 8 67 10 75 2 8 7
42 10 75 13 112 12 106 36 250 58 357 150 654 246 793 40 59 124 126 208 167
138 68 252 80 393 39z m542 -719 c34 -7 62 -13 68 -14 1 -1 3 -1 5 -1 4 1 139
-56 179 -75 40 -20 94 -106 220 -354 71 -139 78 -161 53 -161 -27 0 -221 -126
-276 -179 -9 -9 -37 -35 -62 -59 -91 -85 -211 -261 -334 -492 -44 -83 -55
-104 -65 -120 -4 -8 -12 -24 -17 -35 -5 -11 -39 -83 -76 -160 -64 -134 -173
-378 -230 -515 -15 -36 -33 -78 -40 -95 -7 -16 -46 -111 -85 -210 -39 -99 -75
-189 -80 -200 -25 -60 -160 -420 -232 -620 -27 -77 -53 -149 -58 -160 -4 -11
-13 -33 -20 -50 -6 -16 -20 -55 -30 -85 -28 -88 -100 -293 -110 -315 -5 -11
-23 -63 -40 -115 -17 -52 -34 -102 -37 -110 -4 -8 -7 -17 -7 -20 -9 -39 -131
-388 -139 -395 -7 -7 -8 -6 -3 3 4 6 9 36 11 65 2 28 6 81 9 117 3 36 8 94 11
130 3 36 8 85 10 110 2 25 6 77 9 115 4 39 8 86 11 105 2 19 7 67 10 105 4 39
8 88 11 110 2 22 6 67 9 100 2 33 7 76 9 95 3 19 7 62 11 95 3 33 8 85 12 115
3 30 7 66 8 80 2 14 4 25 4 25 1 0 4 23 6 51 4 51 10 102 21 176 3 20 7 62 9
92 2 31 6 64 9 74 2 9 7 42 11 73 3 31 7 65 9 75 2 11 7 45 11 78 3 32 8 68
10 80 2 11 6 42 9 67 4 25 8 57 10 70 3 13 7 45 10 70 4 25 9 57 11 70 2 13 9
60 15 104 7 44 14 89 16 100 3 11 7 40 10 65 3 25 7 52 9 60 3 8 7 33 10 55 3
22 8 51 11 65 3 14 10 48 15 75 13 77 18 104 35 190 9 44 18 91 20 105 6 34
19 90 60 265 19 83 37 157 39 165 1 8 9 35 16 60 7 25 13 50 15 55 8 37 77
245 102 310 26 65 83 188 91 195 4 3 15 22 26 43 46 89 223 221 348 261 101
32 222 40 317 21z m708 -448 l74 -74 -34 -7 c-18 -4 -42 -9 -53 -11 -17 -3
-29 15 -77 111 l-57 115 37 -30 c20 -16 70 -63 110 -104z"/>
<path d="M3481 3498 c-18 -28 -18 -35 -6 -67 14 -39 90 -281 132 -421 14 -47
28 -92 31 -100 3 -8 7 -22 8 -30 2 -8 30 -106 63 -217 32 -112 56 -203 52
-204 -3 0 -42 -2 -86 -4 -486 -23 -894 -388 -979 -877 -14 -80 -15 -298 -2
-358 12 -52 18 -80 18 -87 3 -31 93 -259 108 -273 3 -3 11 -16 18 -30 48 -93
194 -254 292 -320 81 -55 201 -115 250 -125 3 -1 23 -6 45 -13 81 -23 162 -33
265 -35 82 -1 208 11 230 23 10 5 19 7 22 5 12 -12 197 59 249 96 14 10 29 16
33 12 3 -3 6 -1 6 5 0 7 4 12 9 12 5 0 15 -24 21 -54 6 -30 19 -61 28 -69 33
-30 95 -20 107 16 11 35 10 47 -9 125 l-19 74 50 51 c73 76 93 99 111 130 9
15 20 27 24 27 4 0 8 4 8 10 0 5 13 31 29 58 35 59 94 209 110 277 19 83 22
115 25 240 2 115 -19 276 -43 330 -6 11 -15 38 -22 60 -18 59 -89 192 -142
266 -126 176 -307 309 -516 379 l-85 29 -33 118 c-18 65 -40 141 -48 168 -8
28 -17 59 -20 70 -9 41 -144 483 -190 620 -32 96 -47 115 -92 115 -27 0 -37
-6 -52 -32z"/>
<path d="M2100 2441 c-40 -9 -114 -60 -136 -95 -46 -70 -54 -160 -21 -238 22
-52 89 -111 143 -127 162 -48 319 71 310 236 -4 71 -15 100 -58 149 -56 63
-152 93 -238 75z"/>
<path d="M4734 2327 c-46 -25 -53 -75 -18 -137 13 -24 110 -244 119 -270 4
-12 26 -63 44 -103 30 -65 131 -315 243 -597 55 -140 106 -268 113 -285 14
-32 33 -80 120 -305 31 -80 60 -154 65 -165 5 -11 14 -37 21 -57 17 -50 61
-73 100 -53 42 22 50 60 24 117 -8 18 -42 105 -76 193 -33 88 -65 169 -69 180
-5 11 -25 63 -45 115 -20 52 -41 106 -47 120 -7 14 -12 27 -13 30 -2 9 -62
161 -133 335 -142 347 -164 401 -188 453 -13 29 -24 55 -24 57 0 7 -117 273
-142 322 -23 47 -62 68 -94 50z"/>
<path d="M1964 1859 c-7 -12 -7 -116 0 -128 4 -6 3 -11 -2 -11 -8 0 -6 -82 3
-107 2 -7 -1 -13 -8 -13 -9 0 -9 -2 0 -8 7 -4 9 -13 4 -20 -4 -8 -5 -31 -1
-53 4 -21 5 -39 1 -39 -7 0 -4 -128 4 -147 2 -7 1 -13 -3 -13 -8 0 -6 -84 3
-107 2 -7 -1 -13 -8 -13 -9 0 -9 -2 0 -8 7 -4 9 -13 4 -20 -4 -8 -5 -31 -1
-53 4 -21 4 -39 1 -39 -8 0 -4 -85 4 -107 2 -7 -1 -13 -8 -13 -9 0 -9 -2 0 -8
7 -4 9 -13 4 -20 -4 -8 -5 -31 -1 -53 4 -21 5 -39 1 -39 -7 0 -5 -126 3 -146
3 -8 2 -14 -2 -14 -8 0 -6 -84 3 -107 2 -7 -1 -13 -8 -13 -9 0 -9 -2 0 -8 7
-4 9 -13 4 -20 -4 -8 -5 -31 -1 -53 4 -21 4 -39 0 -39 -7 0 -3 -81 6 -89 3 -3
95 -6 204 -7 l198 -1 0 759 c0 417 -3 759 -6 759 -27 5 -394 3 -398 -2z"/>
<path d="M6058 1583 c-9 -2 -23 -18 -31 -35 -17 -34 -62 62 425 -898 77 -151
147 -281 156 -287 43 -34 116 7 107 58 -3 14 -50 115 -106 225 -55 109 -182
359 -281 554 -99 195 -189 363 -200 373 -20 17 -36 19 -70 10z"/>
</g>
</svg>
