<svg id="_16" data-name="16" xmlns="http://www.w3.org/2000/svg" viewBox="0 0 728.73 714.22"><defs><style>.cls-1,.cls-2{fill:#181818;}.cls-2{fill-rule:evenodd;}</style></defs><title>01</title><path class="cls-1" d="M85.15,42.89a49.51,49.51,0,1,1-35,14.5,49.36,49.36,0,0,1,35-14.5Zm32.3,17.24a45.69,45.69,0,1,0,13.36,32.28,45.62,45.62,0,0,0-13.36-32.28Z" transform="translate(-35.64 -42.89)"/><path class="cls-1" d="M211.09,42.89a49.51,49.51,0,1,1-35,14.5,49.31,49.31,0,0,1,35-14.5Zm32.3,17.24a45.71,45.71,0,1,0,13.35,32.28,45.65,45.65,0,0,0-13.35-32.28Z" transform="translate(-35.64 -42.89)"/><path class="cls-1" d="M337.05,42.89a49.52,49.52,0,1,1-35,14.5,49.41,49.41,0,0,1,35-14.5Zm32.27,17.24A45.64,45.64,0,1,0,382.7,92.41a45.57,45.57,0,0,0-13.38-32.28Z" transform="translate(-35.64 -42.89)"/><path class="cls-1" d="M463,42.89a49.52,49.52,0,1,1-35,14.5,49.39,49.39,0,0,1,35-14.5Zm32.27,17.24a45.64,45.64,0,1,0,13.38,32.28,45.51,45.51,0,0,0-13.38-32.28Z" transform="translate(-35.64 -42.89)"/><path class="cls-1" d="M588.91,42.89a49.51,49.51,0,1,1-35,14.5,49.36,49.36,0,0,1,35-14.5Zm32.28,17.24a45.66,45.66,0,1,0,13.37,32.28,45.54,45.54,0,0,0-13.37-32.28Z" transform="translate(-35.64 -42.89)"/><path class="cls-1" d="M714.85,42.89a49.51,49.51,0,1,1-35,14.5,49.36,49.36,0,0,1,35-14.5Zm32.27,17.24A45.64,45.64,0,1,0,760.5,92.41a45.53,45.53,0,0,0-13.38-32.28Z" transform="translate(-35.64 -42.89)"/><path class="cls-1" d="M85.15,165.91a49.52,49.52,0,1,1-35,14.51,49.46,49.46,0,0,1,35-14.51Zm32.3,17.25a45.69,45.69,0,1,0,13.36,32.3,45.59,45.59,0,0,0-13.36-32.3Z" transform="translate(-35.64 -42.89)"/><path class="cls-1" d="M211.09,165.91a49.52,49.52,0,1,1-35,14.51,49.4,49.4,0,0,1,35-14.51Zm32.3,17.25a45.71,45.71,0,1,0,13.35,32.3,45.63,45.63,0,0,0-13.35-32.3Z" transform="translate(-35.64 -42.89)"/><path class="cls-1" d="M337.05,165.91a49.54,49.54,0,1,1-35,14.51,49.5,49.5,0,0,1,35-14.51Zm32.27,17.25a45.64,45.64,0,1,0,13.38,32.3,45.54,45.54,0,0,0-13.38-32.3Z" transform="translate(-35.64 -42.89)"/><path class="cls-1" d="M463,165.91a49.54,49.54,0,1,1-35,14.51,49.49,49.49,0,0,1,35-14.51Zm32.27,17.25a45.64,45.64,0,1,0,13.38,32.3,45.49,45.49,0,0,0-13.38-32.3Z" transform="translate(-35.64 -42.89)"/><path class="cls-1" d="M588.91,165.91a49.52,49.52,0,1,1-35,14.51,49.46,49.46,0,0,1,35-14.51Zm32.28,17.25a45.66,45.66,0,1,0,13.37,32.3,45.51,45.51,0,0,0-13.37-32.3Z" transform="translate(-35.64 -42.89)"/><path class="cls-1" d="M714.85,165.91a49.52,49.52,0,1,1-35,14.51,49.45,49.45,0,0,1,35-14.51Zm32.27,17.25a45.64,45.64,0,1,0,13.38,32.3,45.5,45.5,0,0,0-13.38-32.3Z" transform="translate(-35.64 -42.89)"/><path class="cls-1" d="M85.15,289a49.51,49.51,0,1,1-35,14.5,49.36,49.36,0,0,1,35-14.5Zm32.3,17.25a45.65,45.65,0,1,0,13.36,32.27,45.45,45.45,0,0,0-13.36-32.27Z" transform="translate(-35.64 -42.89)"/><path class="cls-1" d="M211.09,289a49.51,49.51,0,1,1-35,14.5,49.31,49.31,0,0,1,35-14.5Zm32.3,17.25a45.68,45.68,0,1,0,13.35,32.27,45.49,45.49,0,0,0-13.35-32.27Z" transform="translate(-35.64 -42.89)"/><path class="cls-1" d="M337.05,289a49.52,49.52,0,1,1-35,14.5,49.41,49.41,0,0,1,35-14.5Zm32.27,17.25a45.6,45.6,0,1,0,13.38,32.27,45.4,45.4,0,0,0-13.38-32.27Z" transform="translate(-35.64 -42.89)"/><path class="cls-1" d="M463,289a49.52,49.52,0,1,1-35,14.5A49.39,49.39,0,0,1,463,289Zm32.27,17.25a45.6,45.6,0,1,0,13.38,32.27,45.35,45.35,0,0,0-13.38-32.27Z" transform="translate(-35.64 -42.89)"/><path class="cls-1" d="M588.91,289a49.51,49.51,0,1,1-35,14.5,49.36,49.36,0,0,1,35-14.5Zm32.28,17.25a45.63,45.63,0,1,0,13.37,32.27,45.37,45.37,0,0,0-13.37-32.27Z" transform="translate(-35.64 -42.89)"/><path class="cls-1" d="M714.85,289a49.51,49.51,0,1,1-35,14.5,49.36,49.36,0,0,1,35-14.5Zm32.27,17.25a45.6,45.6,0,1,0,13.38,32.27,45.36,45.36,0,0,0-13.38-32.27Z" transform="translate(-35.64 -42.89)"/><path class="cls-1" d="M85.15,412a49.51,49.51,0,1,1-35,14.5,49.36,49.36,0,0,1,35-14.5Zm32.3,17.24a45.69,45.69,0,1,0,13.36,32.27,45.62,45.62,0,0,0-13.36-32.27Z" transform="translate(-35.64 -42.89)"/><path class="cls-1" d="M211.09,412a49.51,49.51,0,1,1-35,14.5,49.31,49.31,0,0,1,35-14.5Zm32.3,17.24a45.71,45.71,0,1,0,13.35,32.27,45.65,45.65,0,0,0-13.35-32.27Z" transform="translate(-35.64 -42.89)"/><path class="cls-1" d="M337.05,412a49.52,49.52,0,1,1-35,14.5,49.41,49.41,0,0,1,35-14.5Zm32.27,17.24a45.64,45.64,0,1,0,13.38,32.27,45.57,45.57,0,0,0-13.38-32.27Z" transform="translate(-35.64 -42.89)"/><path class="cls-1" d="M463,412a49.52,49.52,0,1,1-35,14.5A49.39,49.39,0,0,1,463,412Zm32.27,17.24a45.64,45.64,0,1,0,13.38,32.27,45.51,45.51,0,0,0-13.38-32.27Z" transform="translate(-35.64 -42.89)"/><path class="cls-1" d="M588.91,412a49.51,49.51,0,1,1-35,14.5,49.36,49.36,0,0,1,35-14.5Zm32.28,17.24a45.66,45.66,0,1,0,13.37,32.27,45.54,45.54,0,0,0-13.37-32.27Z" transform="translate(-35.64 -42.89)"/><path class="cls-1" d="M714.85,412a49.51,49.51,0,1,1-35,14.5,49.36,49.36,0,0,1,35-14.5Zm32.27,17.24a45.64,45.64,0,1,0,13.38,32.27,45.53,45.53,0,0,0-13.38-32.27Z" transform="translate(-35.64 -42.89)"/><path class="cls-1" d="M85.15,535a49.52,49.52,0,1,1-35,14.51,49.46,49.46,0,0,1,35-14.51Zm32.3,17.25a45.69,45.69,0,1,0,13.36,32.3,45.59,45.59,0,0,0-13.36-32.3Z" transform="translate(-35.64 -42.89)"/><path class="cls-1" d="M211.09,535a49.52,49.52,0,1,1-35,14.51,49.4,49.4,0,0,1,35-14.51Zm32.3,17.25a45.71,45.71,0,1,0,13.35,32.3,45.63,45.63,0,0,0-13.35-32.3Z" transform="translate(-35.64 -42.89)"/><path class="cls-1" d="M337.05,535a49.54,49.54,0,1,1-35,14.51,49.5,49.5,0,0,1,35-14.51Zm32.27,17.25a45.64,45.64,0,1,0,13.38,32.3,45.54,45.54,0,0,0-13.38-32.3Z" transform="translate(-35.64 -42.89)"/><path class="cls-1" d="M463,535a49.54,49.54,0,1,1-35,14.51A49.49,49.49,0,0,1,463,535Zm32.27,17.25a45.64,45.64,0,1,0,13.38,32.3,45.49,45.49,0,0,0-13.38-32.3Z" transform="translate(-35.64 -42.89)"/><path class="cls-1" d="M588.91,535a49.52,49.52,0,1,1-35,14.51,49.46,49.46,0,0,1,35-14.51Zm32.28,17.25a45.66,45.66,0,1,0,13.37,32.3,45.51,45.51,0,0,0-13.37-32.3Z" transform="translate(-35.64 -42.89)"/><path class="cls-1" d="M714.85,535a49.52,49.52,0,1,1-35,14.51,49.45,49.45,0,0,1,35-14.51Zm32.27,17.25a45.64,45.64,0,1,0,13.38,32.3,45.5,45.5,0,0,0-13.38-32.3Z" transform="translate(-35.64 -42.89)"/><path class="cls-1" d="M85.15,658.08a49.51,49.51,0,1,1-35,14.5,49.36,49.36,0,0,1,35-14.5Zm32.3,17.24a45.66,45.66,0,1,0,13.36,32.27,45.49,45.49,0,0,0-13.36-32.27Z" transform="translate(-35.64 -42.89)"/><path class="cls-1" d="M211.09,658.08a49.51,49.51,0,1,1-35,14.5,49.31,49.31,0,0,1,35-14.5Zm32.3,17.24a45.69,45.69,0,1,0,13.35,32.27,45.53,45.53,0,0,0-13.35-32.27Z" transform="translate(-35.64 -42.89)"/><path class="cls-1" d="M337.05,658.08a49.52,49.52,0,1,1-35,14.5,49.41,49.41,0,0,1,35-14.5Zm32.27,17.24a45.62,45.62,0,1,0,13.38,32.27,45.44,45.44,0,0,0-13.38-32.27Z" transform="translate(-35.64 -42.89)"/><path class="cls-1" d="M463,658.08a49.52,49.52,0,1,1-35,14.5,49.39,49.39,0,0,1,35-14.5Zm32.27,17.24a45.62,45.62,0,1,0,13.38,32.27,45.39,45.39,0,0,0-13.38-32.27Z" transform="translate(-35.64 -42.89)"/><path class="cls-1" d="M588.91,658.08a49.51,49.51,0,1,1-35,14.5,49.36,49.36,0,0,1,35-14.5Zm32.28,17.24a45.64,45.64,0,1,0,13.37,32.27,45.41,45.41,0,0,0-13.37-32.27Z" transform="translate(-35.64 -42.89)"/><path class="cls-1" d="M714.85,658.08a49.51,49.51,0,1,1-35,14.5,49.36,49.36,0,0,1,35-14.5Zm32.27,17.24a45.62,45.62,0,1,0,13.38,32.27,45.41,45.41,0,0,0-13.38-32.27Z" transform="translate(-35.64 -42.89)"/><path class="cls-2" d="M88.94,82.29V78.23a2.12,2.12,0,0,1,2.22-2.41h5.67V67.15H89c-8.69,0-10.64,6.42-10.64,10.59v4.55h-5V92.41h5.1v25.28H88.55V92.41H96l.33-4,.6-6.14Z" transform="translate(-35.64 -42.89)"/><path class="cls-2" d="M594,89c-3.65.06-7.29.06-10.94.06-1,0-2.11-.06-3.13,0-.22,0-.55.24-.55.38,0,2.11,0,4.22,0,6.42h8.91a4.83,4.83,0,0,1-.3,1.06c-1.35,4.06-5.54,6.06-10.07,5.32a9.8,9.8,0,0,1-8-11.68,10.07,10.07,0,0,1,.66-2.27,9.83,9.83,0,0,1,11-5.51,9,9,0,0,1,4.19,2.16l4.91-4.9a2.64,2.64,0,0,1-.41-.36,16,16,0,0,0-13.55-3.7,16.81,16.81,0,0,0-12.88,22.51,16.87,16.87,0,0,0,17.63,10.61,15,15,0,0,0,9.68-4.53c3.86-4.11,4.87-9,4.24-14.5-.11-.9-.46-1.07-1.31-1.07Zm16.59.52h-1.1v-1c0-1.39,0-2.79,0-4.22,0-.22-.27-.63-.38-.63-1.26,0-2.55,0-3.9,0v5.84h-5.89v1.07c.05,1,.08,2.11.16,3.15,1,0,2,.11,3.1.11.85,0,1.73,0,2.66,0v5.76c1.45,0,2.8,0,4.25,0V93.75h5.76V89.47Z" transform="translate(-35.64 -42.89)"/><path class="cls-2" d="M737,712.58a20.88,20.88,0,0,0,.53-4.74,15.82,15.82,0,0,0-.06-1.7,22.28,22.28,0,0,0-22.35-20.4,23.49,23.49,0,0,0-3.84.3,13.13,13.13,0,0,0-6.91-1.94,12.9,12.9,0,0,0-13,12.83,12.48,12.48,0,0,0,1.78,6.47c-.16.79-.3,1.62-.38,2.41s-.08,1.34-.08,2a22.26,22.26,0,0,0,22.42,22.1,23.47,23.47,0,0,0,4.12-.38,12.85,12.85,0,0,0,17.76-17Zm-10.39,5.82a10.62,10.62,0,0,1-4.52,3.43,19.07,19.07,0,0,1-7,1.17,17.37,17.37,0,0,1-8-1.64,10.62,10.62,0,0,1-3.7-3.24,7,7,0,0,1-1.4-4,2.64,2.64,0,0,1,.94-2.08,3.32,3.32,0,0,1,2.33-.86,3,3,0,0,1,2,.69,5,5,0,0,1,1.32,1.89,9.06,9.06,0,0,0,1.26,2.25,5.36,5.36,0,0,0,1.86,1.45,9.67,9.67,0,0,0,7.79-.6,3.26,3.26,0,0,0,1.65-2.74,2.78,2.78,0,0,0-.83-2.14,7.37,7.37,0,0,0-2.41-1.29c-1-.3-2.41-.65-4.11-1a35.78,35.78,0,0,1-5.9-1.72,10,10,0,0,1-3.84-2.8,6.47,6.47,0,0,1-.76-1.23,7.42,7.42,0,0,1,.85-7.65,8.93,8.93,0,0,1,4.36-3,17.71,17.71,0,0,1,6.55-1.07,18.51,18.51,0,0,1,5.26.68,13,13,0,0,1,3.68,1.81,7.87,7.87,0,0,1,2.19,2.42,5.4,5.4,0,0,1,.69,2.54,2.91,2.91,0,0,1-.91,2.12,3.14,3.14,0,0,1-2.3.95,2.84,2.84,0,0,1-1.92-.57,6.74,6.74,0,0,1-1.34-1.78,7.61,7.61,0,0,0-2-2.47,6.45,6.45,0,0,0-3.73-.82,7.08,7.08,0,0,0-3.9,1,2.48,2.48,0,0,0-1.39,2.11,2.1,2.1,0,0,0,.46,1.29,5,5,0,0,0,1.35,1,12.37,12.37,0,0,0,1.78.66,2.57,2.57,0,0,0,.38.08c.63.19,1.56.39,2.74.69,1.79.38,3.49.79,5,1.26a15.82,15.82,0,0,1,3.81,1.75,7.07,7.07,0,0,1,2.52,2.61,7.92,7.92,0,0,1,.9,3.92,8.27,8.27,0,0,1-1.56,4.91Z" transform="translate(-35.64 -42.89)"/><path class="cls-2" d="M613.7,204.9s-.52-3.64-2-5.23a7.24,7.24,0,0,0-5-2.25c-7.08-.52-17.69-.52-17.69-.52h-.06s-10.58,0-17.65.52a7.18,7.18,0,0,0-5.07,2.25c-1.51,1.59-2,5.23-2,5.23a81,81,0,0,0-.52,8.5v4a79.47,79.47,0,0,0,.52,8.5s.52,3.65,2,5.27c1.92,2.11,4.44,2,5.59,2.25,4,.41,17.19.55,17.19.55s10.61-.06,17.69-.55a7.15,7.15,0,0,0,5-2.25c1.51-1.62,2-5.27,2-5.27a84.26,84.26,0,0,0,.49-8.5v-4c0-4.22-.49-8.5-.49-8.5Zm-16.34,10-13.68,7.38V207.45l6.19,3.38Z" transform="translate(-35.64 -42.89)"/><path class="cls-2" d="M488.23,91.14a24.81,24.81,0,0,0-49.57-.46,7.46,7.46,0,0,0-.05,1.07,24.59,24.59,0,0,0,3.56,12.72l-4.5,13.22,13.77-4.36a25,25,0,0,0,12,3,24.72,24.72,0,0,0,24.84-24.62c0-.22,0-.39,0-.61Zm-13.43,5.6c-.63-.3-3.59-1.78-4.14-2s-1-.31-1.4.33a27.49,27.49,0,0,1-1.92,2.33c-.36.44-.71.46-1.29.19a15.37,15.37,0,0,1-4.91-3,18.11,18.11,0,0,1-3.4-4.14c-.32-.66-.05-.93.25-1.29a7,7,0,0,0,.93-1,1,1,0,0,0,.22-.27,5.5,5.5,0,0,0,.39-.72,1,1,0,0,0-.06-1c-.11-.3-1.34-3.32-1.86-4.5s-1-1-1.35-1-.76,0-1.18,0a2.06,2.06,0,0,0-1.61.76,6.5,6.5,0,0,0-2.17,5,6.33,6.33,0,0,0,.36,2,13.19,13.19,0,0,0,2.14,4.19c.3.41,4.19,6.69,10.39,9.11s6.22,1.59,7.32,1.5,3.59-1.42,4.11-2.88A5,5,0,0,0,476,97.4a3.31,3.31,0,0,0-1.15-.66Zm-11.38,15.74A20.85,20.85,0,0,1,452,109.05l-8,2.55,2.58-7.71a20.54,20.54,0,0,1-4-12.14,16.64,16.64,0,0,1,.11-2,20.88,20.88,0,0,1,41.57.38c0,.55,0,1.1,0,1.62a20.83,20.83,0,0,1-20.86,20.73Z" transform="translate(-35.64 -42.89)"/><path class="cls-2" d="M212.29,313.23c-14.2,0-21.41,9.85-21.41,18.1a15.69,15.69,0,0,0,.55,4.36,9.59,9.59,0,0,0,5.59,6.75,1,1,0,0,0,1.48-.72c.17-.52.47-1.78.63-2.33a1.35,1.35,0,0,0-.41-1.62,7.77,7.77,0,0,1-1.64-3,10,10,0,0,1-.36-2.69c0-7.32,5.67-13.9,14.78-13.9,8,0,12.47,4.74,12.47,11.1a25.82,25.82,0,0,1-.55,5.38c-1.26,5.84-4.55,10.06-9,10.06-3.13,0-5.51-2.49-4.74-5.59.43-1.73,1.06-3.54,1.61-5.29a18.48,18.48,0,0,0,1.07-5c0-2.42-1.31-4.36-4.08-4.36-3.21,0-5.79,3.23-5.79,7.51a12,12,0,0,0,.19,2.14,11,11,0,0,0,.77,2.46s-3.29,13.47-3.84,15.83c-1.15,4.71-.16,10.44-.08,11,0,.33.49.41.71.16s4.12-4.91,5.43-9.48c.33-1.32,2.11-8,2.11-8,1,1.95,4.06,3.65,7.32,3.65,7.82,0,13.63-5.68,15.52-13.93a26.28,26.28,0,0,0,.66-6c0-8.64-7.54-16.62-19-16.62Z" transform="translate(-35.64 -42.89)"/><path class="cls-2" d="M611.67,334.62l-.36-.82-.65-.49c-.85-.64-5.1,0-6.25-1-.86-.77-1-2.11-1.19-3.92-.46-3.51-.76-3.73-1.31-4.91-2-4.25-7.49-7.46-11.21-7.9H580.52A14.55,14.55,0,0,0,566,330v16.89a14.51,14.51,0,0,0,14.5,14.42h16.67a14.54,14.54,0,0,0,14.54-14.42l.08-9.62v-2.06Zm-30.93-7.21h8a2.77,2.77,0,0,1,0,5.54h-8a2.77,2.77,0,1,1,0-5.54Zm16.34,22.07H580.74a2.76,2.76,0,1,1,0-5.51h16.34a2.76,2.76,0,0,1,0,5.51Z" transform="translate(-35.64 -42.89)"/><path class="cls-2" d="M692.5,339v21.88h10.42V331H692.5ZM737,340.19c-.69-5.65-3.27-9.16-10.89-9.16-4.47,0-7.48,1.64-8.75,4h-.13v-4h-8.31v29.8h8.69V346.05c0-3.89.77-7.65,5.54-7.65s5.15,4.45,5.15,7.93v14.5h8.94V344.46a35.41,35.41,0,0,0-.24-4.27Zm-39.24-24.05a5.21,5.21,0,1,0,5.21,5.21,5.21,5.21,0,0,0-5.21-5.21Z" transform="translate(-35.64 -42.89)"/><path class="cls-2" d="M85.15,691.85l15.93,9.85-15.93,9.82-15.9-9.82ZM101,719.55l-4.74,3.1-11.05-9.16L74.1,722.65l-4.74-3.1V723l15.85,9.46L101,723Zm.08-17.85L111.94,693,96.2,682.67l-11,9.18L74.1,682.67,58.37,693l10.88,8.72-10.88,8.72L74.1,720.7l11.05-9.18,11,9.18,15.74-10.28Z" transform="translate(-35.64 -42.89)"/><path class="cls-2" d="M616.3,447.72c-.74-.55-3.4-.55-6-.55a38.05,38.05,0,0,0-6,.31c-.58.21-1.87,3.34-3.54,6.55-1.92,3.62-4.25,7.13-5.73,7.07-2,0-1.48-6-1.34-10.36,0-2.88-.44-3.81-.85-4.06a16.66,16.66,0,0,0-3.81-1.4s-8.4-.63-9.57,3c1.61.22,4.36-.27,3.29,10.94-.09.55-1.29,5.15-5.19-1.07-1-1.56-4.71-10.91-6-11-4.3-.08-8.58-.27-10.06.55s1.86,7.24,7.38,15.85c4.46,7.07,9.21,12.56,17.43,13.93,1.57.16,5.57.33,6.86-.28.85-.41-.22-6.49,2.71-7.1,1.29-.24,6.31,6.36,8.2,7.1a18.33,18.33,0,0,0,6.25.55c2.8-.08,6,.28,6.28-1.64.69-4.2-8.47-9.68-8.72-12.26-.22-1.86,3.35-5.29,5.16-7.92,2.24-3.18,4.71-7,3.31-8.23Z" transform="translate(-35.64 -42.89)"/><path class="cls-2" d="M740.13,200a21.87,21.87,0,0,1-6,1.62,10.25,10.25,0,0,0,4.58-5.67,21.51,21.51,0,0,1-6.61,2.49,10.42,10.42,0,0,0-18,7,10.93,10.93,0,0,0,.3,2.34,29.46,29.46,0,0,1-21.39-10.67,10.34,10.34,0,0,0-1.42,5.13,10.21,10.21,0,0,0,4.6,8.5,10.11,10.11,0,0,1-4.68-1.26v.13a9.57,9.57,0,0,0,.71,3.68,10.32,10.32,0,0,0,7.62,6.3,10,10,0,0,1-2.74.39,9.71,9.71,0,0,1-2-.22,10.47,10.47,0,0,0,9.68,7.13,21,21,0,0,1-12.86,4.36c-.85,0-1.64-.06-2.49-.14a29.91,29.91,0,0,0,15.9,4.58c16.2,0,26.21-11.22,28.82-22.87a28.51,28.51,0,0,0,.68-6.17v-1.32a21.43,21.43,0,0,0,5.16-5.29Z" transform="translate(-35.64 -42.89)"/><path class="cls-2" d="M236,706.69a24.53,24.53,0,0,0-1.89-8.8,27.09,27.09,0,0,0-2.33-4.25,28,28,0,0,0-3-3.68,27.69,27.69,0,0,0-3.7-3,27,27,0,0,0-4.23-2.3,23.43,23.43,0,0,0-4.66-1.43,24.59,24.59,0,0,0-10.06,0,23.43,23.43,0,0,0-4.66,1.43,24.74,24.74,0,0,0-7.93,5.34,24.55,24.55,0,0,0-3,3.68,21.58,21.58,0,0,0-2.28,4.25,22,22,0,0,0-1.48,4.69,20.86,20.86,0,0,0-.46,3.84,7.65,7.65,0,0,0-.06,1.2,24,24,0,0,0,.52,5,22,22,0,0,0,1.48,4.69,21.58,21.58,0,0,0,2.28,4.25,25.52,25.52,0,0,0,3,3.67,22.67,22.67,0,0,0,3.68,3,25.8,25.8,0,0,0,4.25,2.27,23,23,0,0,0,4.66,1.48,27.15,27.15,0,0,0,10.06,0,23,23,0,0,0,4.66-1.48,26,26,0,0,0,4.23-2.27,23.25,23.25,0,0,0,3.7-3,29.31,29.31,0,0,0,3-3.67,27.09,27.09,0,0,0,2.33-4.25,25.18,25.18,0,0,0,1.43-4.69,25.54,25.54,0,0,0,.52-5,4.54,4.54,0,0,0-.06-.93Zm-24.89-20.37a21.25,21.25,0,0,1,14.06,5.29c-.05.08-3.1,4.69-11.1,7.7a105.38,105.38,0,0,0-8-12.39,21.57,21.57,0,0,1,5-.6Zm-5.08.6h0a.09.09,0,0,1-.08,0c.06,0,.06,0,.08,0Zm-4,1.43a120.27,120.27,0,0,1,7.93,12.28,78.86,78.86,0,0,1-19.63,2.58A21.24,21.24,0,0,1,202,688.35Zm-6.71,33.48a21.12,21.12,0,0,1-5.46-14.21,4.72,4.72,0,0,1,0-.68,78.46,78.46,0,0,0,21.85-3.05c.6,1.18,1.18,2.42,1.73,3.65a2.32,2.32,0,0,0-.85.25c-11.52,3.67-17.3,14-17.3,14Zm15.82,7.07A21.14,21.14,0,0,1,198,724.37h0a5.2,5.2,0,0,1-.47-.38,4.57,4.57,0,0,0,.47.38c.05-.08,4.17-8.93,16.72-13.29.06,0,.09,0,.14,0a87.09,87.09,0,0,1,4.52,16.15,21.37,21.37,0,0,1-8.3,1.7Zm11.9-3.65a92.58,92.58,0,0,0-4.14-15.19,31.23,31.23,0,0,1,13.29.91A21.34,21.34,0,0,1,223,725.25Zm-5.4-18.56a6.37,6.37,0,0,1-.47-1.1c-.36-.77-.69-1.48-1-2.25-.13-.27-.27-.55-.44-.85,8.42-3.42,11.82-8.33,11.9-8.41a21.27,21.27,0,0,1,4.75,11.62c0,.55.08,1.1.08,1.7a48.18,48.18,0,0,0-14.8-.71Z" transform="translate(-35.64 -42.89)"/><path class="cls-2" d="M109.94,227.88v0h0v0a4.76,4.76,0,0,0-1.62-.58h0a13.64,13.64,0,0,1-6.55-4.83,16.74,16.74,0,0,1-2.31-3.94h0a1.87,1.87,0,0,1,.09-1.7h0a4.89,4.89,0,0,1,2.25-1.49h0a8.36,8.36,0,0,0,3.07-1.56h0a1.14,1.14,0,0,0,.47-.57.85.85,0,0,1,.08-.22,1.34,1.34,0,0,0-.08-.82h0a2.48,2.48,0,0,0-1-1h0a2.43,2.43,0,0,0-1.86-.16h0a6.77,6.77,0,0,1-1.62.46s0,.06,0,.06a4.53,4.53,0,0,1-1.86-.06,1.4,1.4,0,0,0,0-.41h0c0-1.1.08-2.25.08-3.48h0a35.47,35.47,0,0,0-.11-5.54v-.06a12.58,12.58,0,0,0-5.21-7.7A12.92,12.92,0,0,0,87.21,192h0a22.35,22.35,0,0,0-2.3-.14,14.3,14.3,0,0,0-8.67,2.8A13.56,13.56,0,0,0,72,200.16v0a15.59,15.59,0,0,0-.66,6.74h0c0,1.51.2,3,.09,4.45,0,0,0,0-.06.08a6.31,6.31,0,0,1-2.16-.06h0c-.52-.08-1-.3-1.65-.46h0a1.8,1.8,0,0,0-1.62.35h0v0a1.71,1.71,0,0,0-.93,1.37.15.15,0,0,0,0,.11h0a1.56,1.56,0,0,0,.54.9,2.59,2.59,0,0,0,.58.42v0a20.07,20.07,0,0,0,3.43,1.48h0A2.35,2.35,0,0,1,71,217.13a3.76,3.76,0,0,1-.6,2.61h0a15.84,15.84,0,0,1-5.21,6,12.81,12.81,0,0,1-3.81,1.73h0c-.3.14-1,.19-1.37.82a.25.25,0,0,0-.08.17,1.14,1.14,0,0,0,.22,1,1.59,1.59,0,0,0,.6.47h0a13.1,13.1,0,0,0,3.54,1.23h0a19.44,19.44,0,0,1,2.22.55c0,.05.11.25.25.6.22.63.3,1.4.54,2.17a.68.68,0,0,0,.47.41,1.22,1.22,0,0,0,.85-.06s0,0,0,0a14.34,14.34,0,0,1,5.59-.17h0c1.86.47,3.43,1.73,5.27,2.83h0A8.22,8.22,0,0,0,83.67,239h0a26.49,26.49,0,0,0,3.57-.08h0A6.64,6.64,0,0,0,90,238l.06-.06c1.89-1,3.54-2.35,5.4-3.18h0a9.9,9.9,0,0,1,2.19-.24h0a31.73,31.73,0,0,1,4.58.24h.17a.81.81,0,0,0,.52-.27,1.67,1.67,0,0,0,.16-.36c.06-.11.08-.19,0-.08s.06-.08.08-.11a6.38,6.38,0,0,1,.85-2.25,1.31,1.31,0,0,1,1-.3h.11a18.32,18.32,0,0,0,3.62-1c0-.06,0-.06.06-.06a3,3,0,0,0,1.42-1h0a1,1,0,0,0-.27-1.48Z" transform="translate(-35.64 -42.89)"/><path class="cls-2" d="M110.27,327c-2.85,16-18.67,29.5-23.47,32.6s-9.1-1.29-10.67-4.55c-1.81-3.7-7.18-23.91-8.63-25.61s-5.65,1.7-5.65,1.7l-2.06-2.71S68.4,318.09,75,316.8c6.94-1.34,6.94,10.66,8.58,17.41,1.65,6.47,2.71,10.14,4.14,10.14s4.11-3.59,7.08-9.13-.11-10.44-5.93-6.93c2.33-13.93,24.21-17.28,21.39-1.32Z" transform="translate(-35.64 -42.89)"/><path class="cls-2" d="M341.08,444.51c-1.1-.13-2.5-.6-2.74.85s1.28,1.4,2.3,1.62c6.91,1.51,9.27,4,10.42,10.67a5.55,5.55,0,0,1,.08.93c.08.8.27,1.51,1.48,1.29a.86.86,0,0,0,.85-.88c.08-.41,0-1,.06-1.34,0-6.45-5.6-12.29-12.45-13.14Zm.63,5.3c-.71,0-1.43.08-1.7.85-.41,1.09.44,1.39,1.29,1.53a4.94,4.94,0,0,1,4.6,4.8,2,2,0,0,0,.33.93,1.08,1.08,0,0,0,.93.36,1.37,1.37,0,0,0,.61-.17,1.86,1.86,0,0,0,.49-1.7c.06-3.09-3.51-6.69-6.55-6.6ZM356,471.52c-1.4-1.1-2.93-2.08-4.36-3.1-2.93-2-5.62-2.13-7.79,1.07-1.23,1.81-3,1.89-4.74,1.1a20.59,20.59,0,0,1-11-10.5,6.43,6.43,0,0,1-.58-2.2,3.78,3.78,0,0,1,2-3.48c1.23-.79,2.44-1.75,2.36-3.53-.11-2.34-5.87-10.09-8.17-10.95a4.64,4.64,0,0,0-2.83,0c-5.34,1.79-7.54,6.07-5.43,11.14a59.81,59.81,0,0,0,4,8c6.56,11,16.21,19,28.66,24.21a12.36,12.36,0,0,0,2.33.63c3.48.06,7.54-3.26,8.72-6.49s-1.26-4.36-3.13-5.9Zm-17.14-30c11.16,1.7,16.29,6.91,17.72,17.9v.27c.08,1-.11,2.34,1.23,2.34,1.18,0,1.23-.85,1.23-1.7a4.58,4.58,0,0,1-.05-.8c.14-10.39-9.1-20-19.8-20.37-.85.14-2.49-.55-2.63,1.23,0,1.18,1.37,1,2.3,1.13Z" transform="translate(-35.64 -42.89)"/><path class="cls-2" d="M350.56,709.16a10.82,10.82,0,0,1,1.24-5.08,11.68,11.68,0,0,1,4.14-4.52,11.44,11.44,0,0,0-9.1-5c-3.84-.39-7.52,2.33-9.46,2.33s-5-2.25-8.23-2.23A12.33,12.33,0,0,0,318.87,701a14.1,14.1,0,0,0-1.48,3.81c-1.87,7.32,1.07,16.34,4.66,21.66,2.06,3,4.58,6.52,7.81,6.39s4.34-2.06,8.15-2.06,4.85,2.06,8.2,2,5.53-3.12,7.62-6.16a30,30,0,0,0,3.42-7.19,11.25,11.25,0,0,1-6.69-10.25Zm-6.22-18.81a11.3,11.3,0,0,0,2.61-8A11,11,0,0,0,337,694a9.3,9.3,0,0,0,7.35-3.59Z" transform="translate(-35.64 -42.89)"/><path class="cls-2" d="M358.93,333.41c3.4-.79,3.4-3.34,3.4-3.34h-8.42c-5.1-5.07-10.12-6.77-16.89-6.77s-11.76,1.7-16.86,6.77h-8.42s0,2.55,3.4,3.34a22,22,0,0,0-1.92,3.24,12.3,12.3,0,0,0-1.48,5.24c0,6.93,4.88,11.76,11.82,11.76a13.71,13.71,0,0,0,10.11-5l3.35,5,3.37-5a13.73,13.73,0,0,0,10.12,5c6.94,0,11.82-4.83,11.82-11.76a12.32,12.32,0,0,0-1.4-5,21.77,21.77,0,0,0-2-3.46ZM323.56,350.3a8.41,8.41,0,0,1-5.62-14.67,8.25,8.25,0,0,1,5.62-2.22,9.31,9.31,0,0,1,3.67.85,8.53,8.53,0,0,1,4.74,7.63,8.43,8.43,0,0,1-8.41,8.41ZM337,346.93A18.93,18.93,0,0,0,331.59,334c-2.33-2.39-5.21-3.92-8-3.92a20.44,20.44,0,0,1,26.95,0,11.61,11.61,0,0,0-8.09,3.95,19.26,19.26,0,0,0-5.4,12.91Zm13.49-6.74a1.67,1.67,0,1,0,1.7,1.67,1.69,1.69,0,0,0-1.7-1.67Zm0-3.38a5.06,5.06,0,1,0,0,10.12,5.06,5.06,0,0,0,0-10.12Zm0,8.42a3.36,3.36,0,1,1,0-6.72,3.36,3.36,0,1,1,0,6.72Zm-26.95-5a1.67,1.67,0,1,0,1.7,1.67,1.69,1.69,0,0,0-1.7-1.67Zm0-3.38a5.06,5.06,0,1,0,0,10.12,5.06,5.06,0,0,0,0-10.12Zm0,8.42a3.36,3.36,0,1,1,3.37-3.34,3.38,3.38,0,0,1-3.37,3.34Zm26.95,5.07a8.43,8.43,0,0,1-3.81-15.95,8.43,8.43,0,0,1,12.23,7.54,8.44,8.44,0,0,1-8.42,8.41Z" transform="translate(-35.64 -42.89)"/><path class="cls-2" d="M569.39,709.21h8.09c1.81,0,4.91.8,4.91,4.22,0,1.81-1.43,3.92-3.21,3.92h-9.79ZM595.44,693H610v4.86H595.44Zm12.64,16.26H597.39a5.25,5.25,0,0,1,5.37-4.82,5.3,5.3,0,0,1,5.32,4.82ZM597,712.45h17.9v-.8a12.19,12.19,0,1,0-12.17,12.2c7.32,0,10.83-4.19,11.93-9.79h-6.61c-.58,2.88-2.28,4.91-5.32,4.91s-5.46-2.88-5.73-6.52Zm-8.09,1.61a8.19,8.19,0,0,0-5.54-7.64,8.29,8.29,0,0,0,3.87-7,8.13,8.13,0,0,0-8.09-8.12H562.87v32.52h16.31a9.81,9.81,0,0,0,9.76-9.79Zm-11.46-9.67h-8.09v-6.58h8.09a3.29,3.29,0,1,1,0,6.58Z" transform="translate(-35.64 -42.89)"/><path class="cls-2" d="M484.83,693.39s.94-7.81-6.22-8.2-8.31-.46-11.43-.68c-.61-5.54-14.73-5.08-14.73-1.32s.08,7.13-.68,8.56-4.06.63-7.87.68a3.34,3.34,0,0,0-3.27,2.63c-.63,2.28,2.66,18.15,3.6,19.66,1.48,2.47,15.24,5,17,3.95s1.95-5.59,2.33-5.59.8,2.55,1.95,3c3.26,1.15,7.4,1.64,9.19,2.63,2,1.1,2.79,7.79.95,9.19-1.2.93-3.34.33-5.86.33s-2.2-3.84-1-3.93a25.57,25.57,0,0,1,2.61,0v-3.94c-1.59,0-5.65-.77-8.17,3-1.13,1.64-1,7.4,1.67,9.54,3.07,2.49,12.39,2.19,13.41,1.59,9.89-5.59,6.52-41,6.52-41Zm-34.38-2.27c.74-.55.55-8.34,0-8.56S442,691,442,691.12s7.79.49,8.5,0ZM478,706.53c-1.07-.61-4-.72-5.59-.33-.64-1.07.41-3.54,3.28-3.27s2.42,3.27,2.31,3.6Z" transform="translate(-35.64 -42.89)"/><path class="cls-2" d="M100.43,450.08a3.84,3.84,0,0,0,4-4,3.93,3.93,0,0,0-4.36-4,3.8,3.8,0,0,0-4,4.2,4,4,0,0,0,4.36,3.78Zm-.58,3.62c-1.84.08-3.21.77-3.21,3v17.91c0,2.71-5.12,3.26-5.12-.17s-.06-6.58,0-11.65c-2.5-14.51-17.06-9.49-17.83-4.75V446.65c-1.53-7.1-7.59-3.78-7.59-3.78s-.19,31.61-.19,35,7.78,3.67,7.78-.22,0-9.57,0-12.94c.08-5.9,10.23-6.69,10.23-.39,0,4.23.19,5.41.19,9.74S89.43,481,94.17,481s10.07-2.33,10.07-7.62V456.19c0-1.86-2.42-2.57-4.39-2.49Z" transform="translate(-35.64 -42.89)"/><path class="cls-2" d="M701.08,573.74a10.89,10.89,0,0,0-10.86,9.35h0a7.15,7.15,0,0,0-.13,1.48,11,11,0,0,0,22,0,10.72,10.72,0,0,0-1-4.53,11.09,11.09,0,0,0-10-6.3Zm-9.46,9a85,85,0,0,1,8.61-1.78,85,85,0,0,0-8.61,1.78Zm48,.93a10.89,10.89,0,0,0-10.94-10,11.08,11.08,0,0,0-10,6.38,11.6,11.6,0,0,0-1,4.45,11,11,0,0,0,22,0c0-.28,0-.58,0-.88Z" transform="translate(-35.64 -42.89)"/><path class="cls-2" d="M337.05,573.6a2.76,2.76,0,0,0-2.77,2.77v16.37a11.71,11.71,0,0,1-23.42,0v-6.86h8.94v6.86a2.8,2.8,0,0,0,2.77,2.77,2.76,2.76,0,0,0,2.74-2.77V576.37a11.71,11.71,0,0,1,23.42,0v3.13l-5.38,1.69-3.56-1.69v-3.13a2.75,2.75,0,0,0-2.74-2.77Zm14.42,30.82a11.69,11.69,0,0,1-11.68-11.68v-7l3.56,1.68,5.38-1.68v7a2.74,2.74,0,1,0,5.48,0v-6.86h9v6.86a11.72,11.72,0,0,1-11.73,11.68Z" transform="translate(-35.64 -42.89)"/><path class="cls-2" d="M578.71,569h-10.8l6.36,11.24-8.52,14.06h10.8l8.5-14.06Zm21.88-9-17,29.89,11,19.27H606l-11-19.27,17-29.89Z" transform="translate(-35.64 -42.89)"/><path class="cls-2" d="M78.13,574.89h-4a1,1,0,0,0-1,1v18.51a1,1,0,0,0,1,1h4a1,1,0,0,0,1-1V575.9a1,1,0,0,0-1-1Zm31.21,14.7a1,1,0,0,1-1,1H106.7a1,1,0,0,1-1-1v-8.86a1,1,0,0,1,1-1h1.62a1,1,0,0,1,1,1Zm5-14.7H100.64a1,1,0,0,0-1,1v18.54a1,1,0,0,0,1,1h7.68a1,1,0,0,1,1,1v.41a1,1,0,0,1-1,1h-7.68a1,1,0,0,0-1,1v2.83a1,1,0,0,0,1,1h13.71a1,1,0,0,0,1-1V575.9a1,1,0,0,0-1-1Zm-49.73,14.7a1,1,0,0,1-1,1H62a1,1,0,0,1-1-1v-8.86a1,1,0,0,1,1-1h1.62a1,1,0,0,1,1,1Zm5-23.12h-4a1,1,0,0,0-1,1v6.41a1,1,0,0,1-1,1H56a1,1,0,0,0-1,1v18.51a1,1,0,0,0,1,1H69.66a1,1,0,0,0,1-1V567.49a1,1,0,0,0-1-1Zm21.55,23.12a1,1,0,0,1-1,1H88.58a1,1,0,0,1-1-1v-8.86a1,1,0,0,1,1-1H90.2a1,1,0,0,1,1,1Zm5.05-14.7H82.52a1,1,0,0,0-1,1v18.54a1,1,0,0,0,1,1H90.2a1,1,0,0,1,1,1v.41a1,1,0,0,1-1,1H82.52a1,1,0,0,0-1,1v2.83a1,1,0,0,0,1,1H96.26a1,1,0,0,0,1-1V575.9a1,1,0,0,0-1-1Zm-18.13-8.42h-4a1,1,0,0,0-1,1v4a1,1,0,0,0,1,1h4a1,1,0,0,0,1-1v-4a1,1,0,0,0-1-1Z" transform="translate(-35.64 -42.89)"/><path class="cls-2" d="M483.76,199.56c2,3.64,1.32,7.95.55,10.44-4.22,13.8-23.28,13.08-26,13.08a3.52,3.52,0,0,0-3.4,2.55l-2.06,9a3.34,3.34,0,0,1-3.42,3h-6.66a2,2,0,0,0,2.13,2.25h6.23a3.39,3.39,0,0,0,3.43-3l2-9a3.52,3.52,0,0,1,3.43-2.6c2.74,0,21.8.76,26-13,.93-3.1,1.7-8.72-2.25-12.69Zm-27.63,10.33,1.86-8a3.52,3.52,0,0,1,2.5-2.47,21.81,21.81,0,0,1,6,.22,5,5,0,0,1,4.22,6.09c-1,7.92-13.32,6.82-13.32,6.82a2,2,0,0,1-1.23-2.66Zm-5.21,22.76,2-9a3.54,3.54,0,0,1,3.45-2.58c2.74,0,21.8.74,26-13.05,1.54-5.05,2.63-17-16.64-17H451.9a3.64,3.64,0,0,0-3.64,3l-9.05,39.18s-.38,2.47,2.05,2.47h6.23a3.38,3.38,0,0,0,3.43-3Z" transform="translate(-35.64 -42.89)"/><path class="cls-2" d="M726.53,90.35a8.71,8.71,0,0,0-2.74-6A8.58,8.58,0,0,0,717.56,82a8.32,8.32,0,0,0-6.17,2.39,9.26,9.26,0,0,0-3.18,6Zm-1-16.81c4,2,4.72,2.33,7.71,5.92,2.46-6.71-1.48-8.41-7.71-5.92Zm-20.73,36.91c-4.36-2.72-5.84-4.86-7.62-9.65-4.88,9.48-3.4,14.56,7.62,9.65Zm3.35-14.26a10,10,0,0,0,9.84,9.32,9.62,9.62,0,0,0,5-1.37,10.34,10.34,0,0,0,3.52-3.76h11.73A21.71,21.71,0,0,1,730.31,111a21.16,21.16,0,0,1-12.58,4.11,22,22,0,0,1-9.77-2.25q-10.32,5-14.83.52c-1.23-1-1.72-2.71-1.72-5a24.84,24.84,0,0,1,1.31-7.62,45.15,45.15,0,0,1,4.44-9.27,35,35,0,0,1,7.27-9.13c1.7-1.67,2.41-2.5,2.85-2.94A65.41,65.41,0,0,0,693.9,88.7a23.37,23.37,0,0,1,10.28-12.06c4.61-2.77,8.39-4.63,13.38-4.63a11.76,11.76,0,0,1,1.62.08,30.47,30.47,0,0,1,10-2.74c3-.17,5.12.33,6.36,1.48,2.55,2.55,2.71,6.55.68,12,1.95,3.34,2,7.1,2,11,0,.93.08,1.78,0,2.49H708.13Z" transform="translate(-35.64 -42.89)"/><path class="cls-2" d="M191.24,597.59h0a2.07,2.07,0,0,1-2.06-2.08v-8.36a2.08,2.08,0,0,1,2.06-2.09,2.12,2.12,0,0,1,2.13,2.09v8.36a2.12,2.12,0,0,1-2.13,2.08Zm8.39,0h0a2.09,2.09,0,0,1-2.12-2.08V583a2.1,2.1,0,1,1,4.2,0v12.53a2.08,2.08,0,0,1-2.08,2.08Zm8.33,0h0a2.39,2.39,0,0,1-2.08-2.63V579.3a2.13,2.13,0,1,1,4.16,0V595a2.39,2.39,0,0,1-2.08,2.63Zm26.08,0A7.31,7.31,0,1,0,234,583a6,6,0,0,0-2.36.44,14.75,14.75,0,0,0-17.44-11.6v25.77H234Zm-51.14,0h0a2.08,2.08,0,0,1-2.06-2.08v-4.17a2.07,2.07,0,1,1,4.14,0v4.17a2.08,2.08,0,0,1-2.08,2.08Z" transform="translate(-35.64 -42.89)"/><path class="cls-2" d="M470.25,447c0-3.7,7.45-5.53,7.45.5a27.66,27.66,0,0,1-1.26,8.09h7.79a50.3,50.3,0,0,0,.58-9.6c0-11.6-22.27-13.46-22.27,1.18,0,10.28,5.46,15.71,10.64,18.51a41.79,41.79,0,0,1-10.64,13C446.25,465.71,448,443.53,448,443.53h-6.85c.16,29.66,16.34,40,18.34,41.48s2.19,1.34,4.77,1.34c2.33-.08,7.62-5.45,14.15-15.4.58-.94,1.21-1.9,1.73-2.83a25.07,25.07,0,0,0,4.69.58v-6.23c-13.8-1.31-14.56-12.69-14.56-15.52Z" transform="translate(-35.64 -42.89)"/><path class="cls-2" d="M432.13,337.31a4.94,4.94,0,0,1,5.33-4.53c5.12,0,5.12,4.53,5.12,4.53Zm22.76,7.59c-5.59.11-5.59-5.92-5.59-5.92s-.25-5.84,5.59-5.92c5.68-.14,5.6,6,5.6,6s0,5.68-5.6,5.81Zm15.47.11s-3.62,0-3.82-2.82c-.27-3.1,5.46-2.88,5.46-2.88h4c.14,0,.85,5.84-5.64,5.7Zm-32.77-14.58c-8.88,0-9.27,7-9.16,8.74,0,0-.46,8.09,8.89,8.09,8.09,0,8.47-5.07,8.47-5.07h-3.67s-.72,2.71-4.8,2.58c-5.08,0-5.32-5.08-5.32-5.08h13.84l0,3.43s0,2.5-.11,3.67h3.43l.11-2.16s1.67,2.63,6.39,2.63a8.36,8.36,0,0,0,7.37-3.67c.85,2.79,4,3.67,6.69,3.67,3.29,0,5.21-.93,6.64-2.71l.13,2.24h3.3c0-.1-.11-1.31-.11-3.81s.11-4.6,0-6.17a7.9,7.9,0,0,0-.09-1.34l6,11.32-3.21,5.93h4.06l11-21.36h-3.81l-6.06,12.09-6.06-12.09h-4.2l.28.41a9.61,9.61,0,0,0-5.57-1.59s-7.35-.14-8.2,4.63h3.81s.25-2.36,4.14-2.27c3.71.13,4.28,1.92,4.28,4.19,0,0-3.1.08-4.14.08-1.45,0-5.43.14-7.62,1.9a8.15,8.15,0,0,0-8.42-8.18c-4.52,0-6.19,2.61-6.19,2.61v-8.91h-4l0,11.24c-.85-2.47-3-5-8.2-5Z" transform="translate(-35.64 -42.89)"/><path class="cls-2" d="M461.69,576.4l-.19-.25-7.24-12.37-.41-.74-.41.74-16.7,28.77-.11.24.11.25L444,605.43l.46.74.44-.74,16.62-28.76Zm-6.3,18h-.31l-.16.28-7.13,12.23-.47.76h34.3l.12-.27,7.15-12.23.44-.77ZM474,590.93l.13.25h.31l14.09,0h.85l-.44-.77-16.67-28.65-.14-.28h-.27l-14.07.06h-.87l.41.77Z" transform="translate(-35.64 -42.89)"/><path class="cls-2" d="M219.81,208.14l-23.15-12.86a3.2,3.2,0,0,0-2.63-.52L214,213.68Zm8.55,4.74-6.17-3.42-6.36,6,6.44,6.09,6-3.29c3-1.65,1.86-4.36.08-5.38ZM194,236.11a3.26,3.26,0,0,0,2.68-.47l23.23-12.72-6-5.68Zm-1.73-39.49a3,3,0,0,0-.16,1.15v35.35a2.87,2.87,0,0,0,.16,1.12l19.82-18.78Z" transform="translate(-35.64 -42.89)"/><path class="cls-2" d="M359,236.49c0-.85-.38-1.54-1.09-1.54s-1.07.61-1.1,1.54Zm.55.3V237h-2.74c0,1.26.47,1.78,1.18,1.78.55,0,.93-.3,1.07-1.21l.49.11a1.54,1.54,0,0,1-1.56,1.59c-1.1,0-1.73-.79-1.73-2.41,0-1.43.55-2.33,1.65-2.33s1.64,1,1.64,2.3Zm-7.81.17a2.27,2.27,0,0,0-1.07-.22c-.69,0-1.1.3-1.1,1a.94.94,0,0,0,1,1.05,1.32,1.32,0,0,0,1.15-.8Zm.49,1.26a7.85,7.85,0,0,0,.08.93h-.49a1.85,1.85,0,0,1-.08-.49,1.58,1.58,0,0,1-1.21.57,1.39,1.39,0,0,1-1.48-1.51,1.43,1.43,0,0,1,1.62-1.45,2.27,2.27,0,0,1,1.07.22V236c0-.77-.36-1-1.07-1a.93.93,0,0,0-1,.85l-.49-.08a1.41,1.41,0,0,1,1.51-1.23c1,0,1.56.44,1.56,1.45Zm8.8-5.29-.49.21v1.43h-.6V235h.6v3.18c0,.63.19,1,.88,1a2.23,2.23,0,0,0,.55-.08v-.52a1.13,1.13,0,0,1-.47.08c-.38,0-.47-.13-.47-.54V235h.94v-.47H361Zm-8.55-33.7a42.25,42.25,0,0,0-2.88-8.25,4.05,4.05,0,0,0-3.67-2.34,4.3,4.3,0,0,0-1.79.39,4,4,0,0,0-1.89,5.43,32.12,32.12,0,0,1,0,27.47,3.82,3.82,0,0,0-.41,1.67,3.4,3.4,0,0,0,.14.94,4,4,0,0,0,4,3.18,4,4,0,0,0,3.54-2.12,29.27,29.27,0,0,0,2.38-6.08c.22-.77.39-1.54.58-2.3a40.72,40.72,0,0,0,1-9,44.5,44.5,0,0,0-1-9ZM347,238.66l-.87-4.09h-.72l-.9,4.09-.88-4.09h-.55l1,4.58h.74l.88-4.06.93,4.06h.72l1-4.58h-.55Zm6.28.49h.5v-6.47h-.5Zm1.59,0h.52v-6.47h-.52Zm-38-34.27a17.88,17.88,0,0,1,9.3,14.8v-.05a3.48,3.48,0,0,1,.38-2,1.52,1.52,0,0,1,.17-.3,17.77,17.77,0,0,0,2.57-9.27c0-.66-.08-1.34-.11-2a26.37,26.37,0,0,0-8.85-7.62,3.68,3.68,0,1,0-3.46,6.5Zm6.5,32.46c0-.9-.41-2.6-1.67-2.6a1.71,1.71,0,0,0-.91.35,1.63,1.63,0,0,0-.46,1.24c0,1,.52,2.65,1.7,2.65a1.25,1.25,0,0,0,1-.52,1.82,1.82,0,0,0,.33-1.12Zm1-.52a2.49,2.49,0,0,1-2.55,2.47,2.39,2.39,0,0,1-2.44-2.39,2.46,2.46,0,0,1,2.57-2.44,2.34,2.34,0,0,1,2.42,2.36Zm-8,.52,1.43-.08v1.51a2.61,2.61,0,0,1-1.18.24,3.32,3.32,0,0,1-3.34-3.45,2.62,2.62,0,0,1,4.6-1.87l-.24.39.32-.08.83-.77a3.58,3.58,0,0,0-1.29-.55,4.61,4.61,0,0,0-1.43-.22,3.58,3.58,0,0,0-3.81,3.51,3.37,3.37,0,0,0,3.59,3.4,10.76,10.76,0,0,0,1.57-.14l1.37-.33v-1.56c0-.08,0-.14.08-.19l.25-.25h-2Zm13.41-31.18c0,.69.14,1.38.14,2.09a17.78,17.78,0,0,1-2.61,9.24,1.28,1.28,0,0,0-.16.27,3.72,3.72,0,0,0-.38,2.09,4,4,0,0,0,1.83,3,4.18,4.18,0,0,0,.88.38,3.28,3.28,0,0,0,1.15.17,3.69,3.69,0,0,0,3.29-1.87,25.23,25.23,0,0,0,3.68-11.6c.05-.54.05-1.09.05-1.64a25.86,25.86,0,0,0-3.67-13.3,2.63,2.63,0,0,1-.28-.33,4.42,4.42,0,0,0-.9-.88,4.29,4.29,0,0,0-2.14-.65,3.64,3.64,0,0,0-1.4.27,4.21,4.21,0,0,0-1.4.93,5.52,5.52,0,0,0-.87,1.4,4,4,0,0,0,.32,3.29,17.24,17.24,0,0,1,2.47,7.18Zm3.48,30.63c0-.74-.46-1.86-1.28-1.86a.94.94,0,0,0-.72.33,1.17,1.17,0,0,0-.22.71c0,.68.39,1.84,1.29,1.84a1,1,0,0,0,.66-.31,1.08,1.08,0,0,0,.27-.71Zm-.57,2.61h-.25a3,3,0,0,0-1,.16,1.07,1.07,0,0,0-.88,1c0,.71.71,1.21,1.78,1.21s1.48-.47,1.48-1.1-.35-.77-1.12-1.31Zm1.31-4.45h-.57a1.82,1.82,0,0,1,.71,1.38,1.67,1.67,0,0,1-.85,1.39.67.67,0,0,0-.3.5c0,.22.16.33.27.44l.36.27a1.81,1.81,0,0,1,.85,1.4c0,.93-.93,1.92-2.66,1.92-1.43,0-2.17-.69-2.17-1.46a1.54,1.54,0,0,1,.77-1.23,4.67,4.67,0,0,1,1.95-.44,1,1,0,0,1-.3-.68,1.5,1.5,0,0,1,.08-.39h-.33a1.54,1.54,0,0,1-1.64-1.56,1.88,1.88,0,0,1,.63-1.37,2.81,2.81,0,0,1,1.81-.55h2.08Zm3.82,1.76,1.83-.77c.19-.08.28-.14.28-.3a1,1,0,0,0-1-.85c-.44,0-1.15.3-1.15,1.4v.52Zm2.08,2.06a2.25,2.25,0,0,0,1.23-.39l-.52.52c-.11.08-.25.11-.33.22a3.31,3.31,0,0,1-1,.17,2,2,0,0,1-1.35-.39,2.62,2.62,0,0,1-1-2.11,2.25,2.25,0,0,1,2.27-2.33,1.92,1.92,0,0,1,1.07.28,1.36,1.36,0,0,1,.66,1l-2.3,1-.82,0a2.3,2.3,0,0,0,2.08,2Zm-11.13-1.43c0-.9-.44-2.6-1.7-2.6a1.71,1.71,0,0,0-.88.35,1.64,1.64,0,0,0-.47,1.24c0,1,.5,2.65,1.68,2.65a1.37,1.37,0,0,0,1.07-.52,2,2,0,0,0,.3-1.12Zm1-.52a2.45,2.45,0,0,1-2.53,2.47,2.4,2.4,0,0,1-2.46-2.39,2.48,2.48,0,0,1,2.57-2.44,2.35,2.35,0,0,1,2.42,2.36Zm14.83-32.22a34.17,34.17,0,0,0-11-10.83l.05.06a3.77,3.77,0,0,1,.88.79l.22.33a25.84,25.84,0,0,1,3.67,13.27c0,.58,0,1.13,0,1.67a26.35,26.35,0,0,1,3,12.29v1.31a3.9,3.9,0,0,1,.31-1.37.31.31,0,0,1,.08-.19,31.65,31.65,0,0,0,3-13.68,34.33,34.33,0,0,0-.19-3.65Zm-8,34.25a1.7,1.7,0,0,0,.5.05l-.36.25h-1.75c.22-.33.27-.33.27-.55V237c0-.77,0-1.92,0-2.94,0-.49.05-1.12.05-1.59h-.77l.77-.38h1.4a.64.64,0,0,0-.44.57c-.08.77-.08,2-.08,3.43v2.33c0,.39.05.44.38.47Z" transform="translate(-35.64 -42.89)"/><path class="cls-2" d="M361.18,78.56a.48.48,0,0,0,0-.47,29,29,0,0,0-10-9.92,28.26,28.26,0,0,0-14.09-3.79,28,28,0,0,0-21.91,10.56.46.46,0,0,0,0,.49L323,89.12a.53.53,0,0,0,.41.19h.06a.4.4,0,0,0,.38-.33,13.64,13.64,0,0,1,13.22-10.2,9.64,9.64,0,0,1,1.18,0h22.51a.5.5,0,0,0,.44-.27Zm-20,27.14a.47.47,0,0,0-.47-.16,13.71,13.71,0,0,1-16-7.38h0L313.41,78.64a.47.47,0,0,0-.38-.19h0a.52.52,0,0,0-.41.19,28.12,28.12,0,0,0,3.26,32.14,28,28,0,0,0,17,9.32s.05,0,.05,0a.47.47,0,0,0,.42-.24l7.86-13.68a.46.46,0,0,0,0-.5Zm21.55-23.82H346.89a.46.46,0,0,0-.41.3.52.52,0,0,0,.11.49,13.58,13.58,0,0,1,1.67,17.5v0l-11.32,19.52a.49.49,0,0,0,0,.47.51.51,0,0,0,.44.25h0a28.05,28.05,0,0,0,25.77-38.25.46.46,0,0,0-.41-.3ZM326.57,92.41A10.48,10.48,0,1,0,337.05,81.9a10.51,10.51,0,0,0-10.48,10.51Z" transform="translate(-35.64 -42.89)"/><path class="cls-2" d="M219.53,453.7a36.87,36.87,0,0,0-1.23-6,10.6,10.6,0,0,0-2.72-4.44,6.67,6.67,0,0,0-4.52-1.57,6.43,6.43,0,0,0-4.52,1.57,8.75,8.75,0,0,0-2.61,4.52,32,32,0,0,0-1.12,5.95q-.26,3-.25,7.18c0,1.73,0,3.29.08,4.53s.17,2.71.33,4.44a19.83,19.83,0,0,0,.8,4.36,16.55,16.55,0,0,0,1.48,3.48,6.4,6.4,0,0,0,2.41,2.63,6.58,6.58,0,0,0,3.48.85,7.1,7.1,0,0,0,3.51-.85,6.61,6.61,0,0,0,2.41-2.63,17.9,17.9,0,0,0,1.48-3.48,20.23,20.23,0,0,0,.91-4.36c.16-1.73.33-3.21.33-4.52s.08-2.72.08-4.45c-.08-2.74-.16-5.12-.33-7.18Zm8.5-10.56c4.53,4.61,6.69,10.64,6.69,18.13A26.11,26.11,0,0,1,228,479.09a22.6,22.6,0,0,1-33.83.08,26.22,26.22,0,0,1-6.72-17.82c0-7.49,2.19-13.6,6.61-18.12,4.36-4.69,10-6.94,17-6.94s12.53,2.25,17,6.85Z" transform="translate(-35.64 -42.89)"/><path class="cls-2" d="M198.42,92.41a12.68,12.68,0,1,1,12.67,12.69,12.69,12.69,0,0,1-12.67-12.69Zm25.77-24.82H198a11.77,11.77,0,0,0-11.74,11.74v26.18A11.79,11.79,0,0,0,198,117.25h26.18a11.78,11.78,0,0,0,11.74-11.74V79.33a11.76,11.76,0,0,0-11.74-11.74ZM198,70.53h26.18a8.8,8.8,0,0,1,8.8,8.8v26.18a8.81,8.81,0,0,1-8.8,8.8H198a8.81,8.81,0,0,1-8.8-8.8V79.33a8.8,8.8,0,0,1,8.8-8.8Zm28.79,3.7a2.58,2.58,0,1,0,2.58,2.57,2.57,2.57,0,0,0-2.58-2.57Zm.3,18.18a16,16,0,1,0-16,16,16,16,0,0,0,16-16Z" transform="translate(-35.64 -42.89)"/><path class="cls-1" d="M714.85,438.47a23,23,0,1,0,23,23A23.11,23.11,0,0,0,714.85,438.47Zm10.6,33.31a1.37,1.37,0,0,1-2,.46c-5.42-3.34-12.22-4-20.28-2.19a1.42,1.42,0,1,1-.69-2.76c8.75-2,16.36-1.16,22.35,2.53A1.38,1.38,0,0,1,725.45,471.78Zm2.77-6.34a1.73,1.73,0,0,1-2.42.57c-6.23-3.8-15.68-4.95-22.94-2.64a1.75,1.75,0,0,1-1-3.35c8.42-2.53,18.79-1.26,25.93,3.11A1.63,1.63,0,0,1,728.22,465.44Zm3.22-7a2.41,2.41,0,0,1-3,.58c-7.38-4.38-19.71-4.84-26.74-2.65a2.12,2.12,0,0,1-1.27-4c8.18-2.42,21.67-2,30.2,3.11A2.23,2.23,0,0,1,731.44,458.41Z" transform="translate(-35.64 -42.89)"/></svg>