<?xml version="1.0" encoding="utf-8"?>
<!-- Generator: Adobe Illustrator 23.1.1, SVG Export Plug-In . SVG Version: 6.00 Build 0)  -->
<svg version="1.1" id="Calque_1" xmlns="http://www.w3.org/2000/svg" xmlns:xlink="http://www.w3.org/1999/xlink" x="0px" y="0px"
	 viewBox="0 0 49.7 49.7" style="enable-background:new 0 0 49.7 49.7;" xml:space="preserve">
<style type="text/css">
	.st0{fill-rule:evenodd;clip-rule:evenodd;fill:#FFFFFF;}
</style>
<path class="st0" d="M12.1,24.8c0-7,5.7-12.7,12.7-12.7s12.7,5.7,12.7,12.7c0,7-5.7,12.7-12.7,12.7C17.8,37.5,12.1,31.8,12.1,24.8z
	 M37.9,0H11.7C5.3,0,0,5.3,0,11.7v26.2c0,6.5,5.3,11.7,11.7,11.7h26.2c6.5,0,11.7-5.3,11.7-11.7V11.7C49.7,5.3,44.4,0,37.9,0z
	 M11.7,2.9h26.2c4.9,0,8.8,4,8.8,8.8v26.2c0,4.9-3.9,8.8-8.8,8.8H11.7c-4.9,0-8.8-3.9-8.8-8.8V11.7C2.9,6.9,6.9,2.9,11.7,2.9z
	 M40.5,6.6c-1.4,0-2.6,1.2-2.6,2.6s1.2,2.6,2.6,2.6c1.4,0,2.6-1.2,2.6-2.6c0,0,0,0,0,0C43.1,7.8,41.9,6.6,40.5,6.6
	C40.5,6.6,40.5,6.6,40.5,6.6z M40.8,24.8c0-8.8-7.2-16-16-16s-16,7.2-16,16s7.2,16,16,16S40.8,33.6,40.8,24.8z"/>
</svg>
